<?xml version="1.0" encoding="utf-8"?>
<!-- Generator: Adobe Illustrator 24.1.1, SVG Export Plug-In . SVG Version: 6.00 Build 0)  -->
<svg version="1.1" xmlns="http://www.w3.org/2000/svg" xmlns:xlink="http://www.w3.org/1999/xlink" x="0px" y="0px"
	 viewBox="0 0 941.54 169.51" style="enable-background:new 0 0 941.54 169.51;" xml:space="preserve">
<style type="text/css">
	.st0{fill:#FFFFFF;}
	.st1{fill:url(#SVGID_1_);}
	.st2{fill:#77BF56;}
	.st3{fill:#3D8E58;}
	.st4{fill:#171E1C;}
	.st5{fill:#959CE8;}
	.st6{fill:#5757CE;}
	.st7{fill:#15161C;}
	.st8{fill:#2C2E4C;}
	.st9{fill:#9AFE95;}
	.st10{fill:#D9FC96;}
	.st11{fill:#A89AFA;}
	.st12{fill:url(#SVGID_2_);}
	.st13{fill:url(#SVGID_3_);}
	.st14{fill:url(#SVGID_4_);}
	.st15{fill:url(#SVGID_5_);}
	.st16{fill:url(#SVGID_6_);}
	.st17{fill:#0A1727;}
	.st18{fill:#E2B866;}
	.st19{fill:#EDD9B7;}
</style>
<g id="Capa_1">
	<g>
		<g>
			<path class="st0" d="M900.17,111.43V98.79c0-23.25,18.17-42.18,41.37-43.1l-0.6-15c-20.87,0.83-38.7,12.47-48.28,29.43
				c-9.57-16.96-27.41-28.6-48.28-29.43l-0.6,15c23.2,0.92,41.37,19.86,41.37,43.1v12.64c0,23.24-18.17,42.16-41.37,43.08l0.6,15
				c20.87-0.83,38.7-12.47,48.28-29.42c9.57,16.95,27.41,28.59,48.28,29.42l0.6-15C918.34,153.59,900.17,134.66,900.17,111.43z"/>
			<circle class="st18" cx="892.67" cy="105.1" r="16.73"/>
			<path class="st0" d="M246.75,58.31V44.07h71.08v14.24H246.75z M267.89,166.12V35.03c0-3.16,0.17-6.29,0.51-9.38
				c0.34-3.09,1.03-6.05,2.09-8.87c1.05-2.82,2.71-5.44,4.97-7.85c2.49-2.71,5.2-4.69,8.14-5.93c2.94-1.24,6.01-2.05,9.21-2.43
				c3.2-0.38,6.35-0.57,9.44-0.57h15.6v14.01h-14.46c-6.33,0-11.06,1.55-14.18,4.63c-3.13,3.09-4.69,7.95-4.69,14.58v132.9H267.89z"
				/>
			<path class="st0" d="M383.04,169.51c-11.9,0-22.21-2.64-30.91-7.91c-8.7-5.27-15.46-12.69-20.28-22.26
				c-4.82-9.57-7.23-20.79-7.23-33.68c0-13.34,2.37-24.86,7.12-34.58c4.75-9.72,11.43-17.21,20.06-22.49
				c8.63-5.27,18.82-7.91,30.57-7.91c12.05,0,22.34,2.77,30.85,8.31c8.51,5.54,14.95,13.47,19.32,23.79
				c4.37,10.32,6.36,22.64,5.99,36.95h-16.95v-5.88c-0.3-15.82-3.71-27.76-10.23-35.82c-6.52-8.06-16.03-12.09-28.53-12.09
				c-13.11,0-23.15,4.26-30.12,12.77c-6.97,8.51-10.45,20.64-10.45,36.39c0,15.37,3.48,27.29,10.45,35.77
				c6.97,8.48,16.86,12.71,29.66,12.71c8.74,0,16.37-2.01,22.89-6.05c6.52-4.03,11.66-9.85,15.43-17.46l15.48,5.99
				c-4.82,10.62-11.92,18.86-21.3,24.69C405.48,166.59,394.87,169.51,383.04,169.51z M336.37,109.73v-13.9h93.23v13.9H336.37z"/>
			<path class="st0" d="M460,166.12V44.07h15.03v30.06h1.69v91.99H460z M548.26,166.12v-62.27c0-6.78-0.64-13.01-1.92-18.7
				c-1.28-5.69-3.33-10.66-6.16-14.92c-2.82-4.26-6.48-7.55-10.96-9.89c-4.48-2.33-9.93-3.5-16.33-3.5
				c-5.88,0-11.06,1.02-15.54,3.05c-4.48,2.03-8.25,4.95-11.3,8.76c-3.05,3.81-5.37,8.42-6.95,13.84
				c-1.58,5.43-2.37,11.6-2.37,18.53l-11.75-2.6c0-12.5,2.18-23.01,6.55-31.53c4.37-8.51,10.4-14.95,18.08-19.32
				c7.68-4.37,16.5-6.55,26.44-6.55c7.31,0,13.69,1.13,19.16,3.39c5.46,2.26,10.1,5.31,13.9,9.15s6.87,8.23,9.21,13.17
				c2.34,4.94,4.03,10.17,5.09,15.71c1.05,5.54,1.58,11.06,1.58,16.56v67.13H548.26z"/>
			<path class="st0" d="M594.25,166.12V44.07h15.03v30.06h1.7v91.99H594.25z M682.51,166.12v-62.27c0-6.78-0.64-13.01-1.92-18.7
				c-1.28-5.69-3.33-10.66-6.16-14.92c-2.82-4.26-6.48-7.55-10.96-9.89c-4.48-2.33-9.93-3.5-16.33-3.5
				c-5.88,0-11.06,1.02-15.54,3.05c-4.48,2.03-8.25,4.95-11.3,8.76c-3.05,3.81-5.37,8.42-6.95,13.84
				c-1.58,5.43-2.37,11.6-2.37,18.53l-11.75-2.6c0-12.5,2.18-23.01,6.55-31.53c4.37-8.51,10.4-14.95,18.08-19.32
				c7.68-4.37,16.5-6.55,26.44-6.55c7.31,0,13.69,1.13,19.15,3.39c5.46,2.26,10.1,5.31,13.9,9.15c3.8,3.84,6.87,8.23,9.21,13.17
				c2.33,4.94,4.03,10.17,5.08,15.71c1.06,5.54,1.58,11.06,1.58,16.56v67.13H682.51z"/>
			<path class="st0" d="M779.47,169.51c-11.9,0-22.21-2.64-30.91-7.91c-8.7-5.27-15.46-12.69-20.28-22.26
				c-4.82-9.57-7.23-20.79-7.23-33.68c0-13.34,2.37-24.86,7.12-34.58c4.75-9.72,11.43-17.21,20.06-22.49
				c8.63-5.27,18.82-7.91,30.57-7.91c12.05,0,22.34,2.77,30.85,8.31c8.51,5.54,14.95,13.47,19.32,23.79
				c4.37,10.32,6.36,22.64,5.99,36.95h-16.95v-5.88c-0.3-15.82-3.71-27.76-10.23-35.82c-6.52-8.06-16.03-12.09-28.53-12.09
				c-13.11,0-23.15,4.26-30.12,12.77c-6.97,8.51-10.45,20.64-10.45,36.39c0,15.37,3.48,27.29,10.45,35.77
				c6.97,8.48,16.86,12.71,29.66,12.71c8.74,0,16.37-2.01,22.89-6.05c6.52-4.03,11.66-9.85,15.43-17.46l15.48,5.99
				c-4.82,10.62-11.92,18.86-21.3,24.69C801.91,166.59,791.3,169.51,779.47,169.51z M732.8,109.73v-13.9h93.23v13.9H732.8z"/>
		</g>
		<g>
			<g>
				<path class="st19" d="M208.61,51.91l-81.81,106.9c-10.93,14.28-32.45,14.28-43.39,0L1.61,51.91c-2.63-3.45-1.78-7.47,0.66-9.92
					l89.82,93.87c7.09,7.42,18.94,7.42,26.05,0l89.82-93.87C210.39,44.44,211.24,48.46,208.61,51.91z"/>
				<path class="st18" d="M207.95,41.98l-89.82,93.87c-7.1,7.42-18.96,7.42-26.05,0L2.27,41.98c2.23-2.23,5.76-3.15,9.16-1.13
					L78,80.34c5.85,3.46,12.52,5.29,19.31,5.29h15.6c6.79,0,13.46-1.83,19.29-5.29l66.59-39.49
					C202.19,38.83,205.72,39.76,207.95,41.98z"/>
			</g>
		</g>
	</g>
</g>
<g id="Capa_2">
</g>
</svg>
